<svg id="Layer_1" data-name="Layer 1" xmlns="http://www.w3.org/2000/svg" viewBox="0 0 85 85"><defs><style>.cls-1{fill:#f3fbfd;}.cls-2{fill:#005984;}</style></defs><circle class="cls-1" cx="42.5" cy="42.5" r="42.5"/><path class="cls-2" d="M71.54,25.85a5.73,5.73,0,0,0-6.44,0,9.08,9.08,0,0,0-.91-.05,7.5,7.5,0,0,0-3.14.66A29.56,29.56,0,0,0,43.56,21a31.91,31.91,0,0,0-7.54.89l-10.5-6.17a1.17,1.17,0,0,0-1.71,1.31l2.53,9.22a21.21,21.21,0,0,0-6.55,7.37,1.18,1.18,0,0,1-.91.64l-3.56.46a1,1,0,0,0-.87,1V46.27a1,1,0,0,0,.87,1l3.14.4a1.21,1.21,0,0,1,.94.7,21.19,21.19,0,0,0,8.2,9l1.26,8.68a1.22,1.22,0,0,0,1.2,1H37a1.21,1.21,0,0,0,1.2-1l.67-4.61a32,32,0,0,0,4.74.35,32.48,32.48,0,0,0,5.63-.5l.69,4.76a1.22,1.22,0,0,0,1.2,1H58a1.22,1.22,0,0,0,1.2-1l1.36-9.34c5.35-3.74,8.73-9.21,8.73-15.31a16.63,16.63,0,0,0-1.61-7.11,4.41,4.41,0,0,0,2.61-3.84,4.29,4.29,0,0,0-2.15-3.57l.23,0a3.67,3.67,0,0,1,2.08.64,1,1,0,0,0,1.39-.27A1,1,0,0,0,71.54,25.85Zm-45.24,11a2.34,2.34,0,1,1,2.34-2.34A2.34,2.34,0,0,1,26.3,36.84Zm37-8.94c-.05.1-.1.21-.14.31L62.89,28Zm-10.84-2a1,1,0,0,1-1.3.54A19.33,19.33,0,0,0,44,25.18a18.07,18.07,0,0,0-7.84,1.59,1,1,0,0,1-.45.1,1,1,0,0,1-.44-1.9A20.34,20.34,0,0,1,44,23.18a21.33,21.33,0,0,1,7.88,1.41A1,1,0,0,1,52.44,25.9Zm15.82,4.56a2.51,2.51,0,0,1-1.57,2.06,19.91,19.91,0,0,0-2-2.71,3.69,3.69,0,0,1,1-1.8C67.16,28.4,68.26,29.36,68.26,30.46Z"/></svg>