<svg id="Layer_1" data-name="Layer 1" xmlns="http://www.w3.org/2000/svg" viewBox="0 0 85 85"><defs><style>.cls-1{fill:#f3fbfd;}.cls-2{fill:#005984;}</style></defs><circle class="cls-1" cx="42.5" cy="42.5" r="42.5"/><path class="cls-2" d="M55.53,22.76a5.15,5.15,0,1,1-5.15-5.15A5.16,5.16,0,0,1,55.53,22.76ZM60,37.82H51.09L53,42.57a3.92,3.92,0,1,1-7.28,2.89L42.8,38.15A4.55,4.55,0,0,0,40,42.36V60.94a4.54,4.54,0,0,0,4.54,4.54H60a4.54,4.54,0,0,0,4.54-4.54V42.36A4.54,4.54,0,0,0,60,37.82Zm-7.79,5L44.61,23.57a4.13,4.13,0,0,0-2.32-2.3,4.05,4.05,0,0,0-3.27.15l-16.35,8a4,4,0,0,0-1.49,5.92L31.26,49.51,27.55,63.45a3.13,3.13,0,0,0,2.22,3.83,3.22,3.22,0,0,0,.81.11,3.15,3.15,0,0,0,3-2.33l3.77-14.17a5.76,5.76,0,0,0-.88-4.83l-6-8.44,11-5,5,12.55a3.14,3.14,0,1,0,5.83-2.31Z"/></svg>