<svg id="Layer_1" data-name="Layer 1" xmlns="http://www.w3.org/2000/svg" viewBox="0 0 85 85"><defs><style>.cls-1{fill:#f3fbfd;}.cls-2{fill:#005884;}</style></defs><circle class="cls-1" cx="42.5" cy="42.5" r="42.5"/><path class="cls-2" d="M32.37,55.21c-5.88-5.74-6.67-13.19-3-20.57a37.89,37.89,0,0,1,6.88-9.78,141.15,141.15,0,0,1,15-12.58c-2.56,8.73.59,16.1,4.48,23.2,3.07,5.61,2.79,10.94-.4,16.26A32.42,32.42,0,0,1,46,61.66c-5.11-8.53-6.67-17.44-5.85-27-1.75,2.65-2.61,9-2.09,13.25a33.64,33.64,0,0,0,7.05,16.26c6,7.14,6.36,7.14,4.8,8.38s-5.48-3.26-7.39-6.36S40.74,62.27,38,60.1,32.37,55.21,32.37,55.21Z"/></svg>