<svg id="Layer_1" data-name="Layer 1" xmlns="http://www.w3.org/2000/svg" viewBox="0 0 85 85"><defs><style>.cls-1{fill:#f3fbfd;}.cls-2{fill:#005884;}</style></defs><circle class="cls-1" cx="42.5" cy="42.5" r="42.5"/><path class="cls-2" d="M39.88,42.51H21.65V64.22a3.19,3.19,0,0,0,3.19,3.2h15Z"/><path class="cls-2" d="M56.27,30.57A9.81,9.81,0,0,0,58.81,27c1.18-2.86.94-5.56-.67-7.41s-4.26-2.48-7.25-1.71a10.27,10.27,0,0,0-7.22,7.19l-1.13,3.68L41.4,25.1h0a10.25,10.25,0,0,0-7.22-7.19c-3-.78-5.63-.15-7.24,1.71s-1.86,4.55-.67,7.41a9.78,9.78,0,0,0,2.53,3.54H22.5a3.2,3.2,0,0,0-3.2,3.2v5.94H39.88V30.77h5.36v8.94H65.7V33.77a3.2,3.2,0,0,0-3.2-3.2ZM35.11,28.72a5.79,5.79,0,0,1-4.69-3.41c-.49-1.19-.52-2.24-.09-2.75a1.92,1.92,0,0,1,1.44-.48,5.25,5.25,0,0,1,1.29.18,5.78,5.78,0,0,1,4,4.16L38,29.17Zm19.54-3.41A5.77,5.77,0,0,1,50,28.72l-2.84.45L48,26.42h0a5.8,5.8,0,0,1,4-4.16,5.33,5.33,0,0,1,1.3-.18,1.89,1.89,0,0,1,1.43.48C55.18,23.07,55.15,24.12,54.65,25.31Z"/><path class="cls-2" d="M45.24,67.42H60.15a3.2,3.2,0,0,0,3.2-3.2V42.51H45.24Z"/></svg>