<svg id="Layer_1" data-name="Layer 1" xmlns="http://www.w3.org/2000/svg" viewBox="0 0 85 85"><defs><style>.cls-1{fill:#f3fbfd;}.cls-2{fill:#005984;}</style></defs><circle class="cls-1" cx="42.5" cy="42.5" r="42.5"/><path class="cls-2" d="M42.5,4.75A37.78,37.78,0,0,0,7.72,57.21a2.4,2.4,0,0,0,4.42-1.87,33,33,0,1,1,9.25,12.45l2.21-2.07a.7.7,0,0,0-.26-1.18L13.1,61.13a.7.7,0,0,0-.9.85L15,72.37a.7.7,0,0,0,1.16.33l1.72-1.61A37.74,37.74,0,1,0,42.5,4.75Z"/><path class="cls-2" d="M43.48,48.05,61,43a.87.87,0,0,0-.17-1.71l-14.75-1.2-2.94-25a.7.7,0,0,0-1.39,0L38.33,43.57A4.07,4.07,0,0,0,43.48,48.05Z"/></svg>